<svg width="1000" xmlns="http://www.w3.org/2000/svg" height="1000" fill="none"><g style="fill: rgb(0, 0, 0);"><path d="M563 407.5c30 80 74 107 92.5 169 19 62.5 12 160-33 184.5-45.5 24.5-129-24.5-207-68.5-77.5-44-149-83.5-173-146-24.5-63-1.5-149 49-234C342.5 228 421 144 469 169c47.5 25 64 158.5 94 238.5Z" style="fill: rgb(181, 130, 148); fill-opacity: 0;" fill="none" class="fills"/><g class="strokes"><g class="outer-stroke-shape"><defs><path d="M563 407.5c30 80 74 107 92.5 169 19 62.5 12 160-33 184.5-45.5 24.5-129-24.5-207-68.5-77.5-44-149-83.5-173-146-24.5-63-1.5-149 49-234C342.5 228 421 144 469 169c47.5 25 64 158.5 94 238.5Z" id="a"/><mask id="b" x="225.405" y="157.277" width="447.229" height="617.513" maskUnits="userSpaceOnUse"><use href="#a" style="fill: none; stroke: white; stroke-width: 6;"/><use href="#a" style="fill: black; stroke: none;"/></mask></defs><use href="#a" mask="url(#b)" style="fill: none; stroke-width: 6; stroke: rgb(156, 98, 163); stroke-opacity: 1;"/><use href="#a" style="fill: none; stroke-width: 3; stroke: none; stroke-opacity: 1;"/></g></g></g></svg>