<?xml version="1.0" standalone="no"?>
<svg viewBox="0 0 200 200" xmlns="http://www.w3.org/2000/svg">
  <path fill="#C69FB6" d="M44.4,-66C54.7,-62.6,58.1,-45.3,64.5,-29.9C70.9,-14.4,80.3,-0.7,81.7,14C83.1,28.8,76.5,44.6,65.7,56.7C54.9,68.7,39.9,76.9,26.1,74.2C12.4,71.5,-0.3,57.8,-14.6,52.4C-29,47,-45,50,-53.3,44.1C-61.5,38.3,-62,23.6,-62.4,10C-62.7,-3.6,-62.9,-16.2,-58.1,-26.5C-53.3,-36.8,-43.6,-44.8,-33.1,-48.1C-22.6,-51.3,-11.3,-49.9,2.9,-54.4C17.1,-59,34.2,-69.4,44.4,-66Z" transform="translate(100 100)" />
</svg>
