<?xml version="1.0" standalone="no"?>
<!DOCTYPE svg PUBLIC "-//W3C//DTD SVG 20010904//EN"
 "http://www.w3.org/TR/2001/REC-SVG-20010904/DTD/svg10.dtd">
<svg version="1.0" xmlns="http://www.w3.org/2000/svg"
 width="1024.000000pt" height="1024.000000pt" viewBox="0 0 1024.000000 1024.000000"
 preserveAspectRatio="xMidYMid meet">
<metadata>
Created by potrace 1.14, written by Peter Selinger 2001-2017
</metadata>
<g transform="translate(0.000000,1024.000000) scale(0.100000,-0.100000)"
fill="#000000" stroke="none">
<path d="M2582 9370 c-31 -30 -57 -128 -86 -331 -26 -178 -27 -733 -2 -866 2
-10 7 -45 10 -78 4 -33 11 -85 16 -115 5 -30 12 -71 14 -90 3 -19 8 -51 11
-70 8 -42 14 -83 20 -130 3 -19 7 -44 9 -55 5 -20 10 -54 25 -184 12 -97 12
-252 -1 -320 -13 -73 -48 -140 -109 -207 -28 -30 -48 -61 -46 -67 2 -7 15 -19
30 -27 22 -12 33 -12 73 -2 26 7 51 9 55 5 11 -11 -61 -133 -117 -202 -80 -97
-46 -139 66 -82 33 17 63 31 65 31 3 0 -11 -28 -31 -62 -115 -202 -193 -393
-268 -660 -62 -221 -106 -319 -203 -461 -29 -43 -53 -84 -53 -91 0 -16 42 -56
59 -56 29 0 97 50 208 153 l30 28 -24 -83 c-48 -165 -163 -638 -179 -737 -7
-43 -13 -443 -7 -490 l5 -43 94 93 c51 51 95 91 98 88 7 -6 -58 -131 -115
-219 -45 -71 -108 -140 -127 -140 -4 0 -39 -7 -77 -15 -130 -29 -410 -28 -574
2 -90 17 -131 0 -131 -55 0 -37 17 -59 57 -73 21 -7 40 -14 43 -14 3 -1 21 -4
40 -8 65 -13 84 -17 125 -23 49 -7 275 -8 312 0 16 3 54 8 86 11 32 3 109 19
172 35 63 17 119 30 124 30 12 0 42 -57 61 -113 14 -44 18 -40 -125 -157 -143
-118 -242 -213 -345 -331 -70 -79 -90 -110 -90 -134 0 -23 46 -65 71 -65 16 0
74 52 190 169 154 155 322 301 347 301 16 0 18 -6 47 -120 32 -123 42 -96
-113 -305 -192 -259 -313 -481 -378 -698 -24 -76 -13 -108 39 -121 52 -13 65
3 122 149 61 154 117 260 220 415 104 156 113 166 124 154 4 -5 16 -40 26 -79
10 -38 22 -74 27 -79 4 -6 8 -18 8 -28 0 -10 4 -26 8 -36 74 -153 109 -220
143 -272 46 -71 42 -72 94 28 25 47 26 56 15 80 -45 95 -106 272 -95 272 2 0
17 -28 34 -62 28 -58 75 -145 95 -176 5 -9 21 10 52 64 24 43 44 84 44 91 0
12 -63 174 -104 268 -16 36 -51 139 -60 176 -5 21 -1 30 19 43 13 9 30 16 37
16 7 0 26 -33 42 -73 46 -116 188 -403 258 -522 60 -101 131 -216 252 -403 56
-88 40 -82 -74 30 -106 103 -190 203 -247 291 -23 37 -47 67 -51 67 -5 0 -27
-38 -51 -84 -51 -100 -59 -74 94 -296 187 -270 243 -343 350 -458 149 -160
414 -345 540 -376 l26 -7 -35 55 c-19 29 -42 69 -52 87 -16 33 -14 32 37 -16
98 -91 127 -117 226 -194 186 -145 373 -260 611 -378 124 -61 136 -64 159 -52
43 23 50 54 23 92 -20 27 -164 201 -180 217 -56 56 -288 396 -425 623 -59 98
-109 176 -112 173 -14 -14 127 -310 219 -462 30 -49 62 -102 72 -119 l18 -30
-22 25 c-46 53 -265 350 -328 444 -67 102 -136 231 -185 346 -15 36 -43 83
-63 105 -20 22 -72 84 -117 138 -45 55 -83 95 -84 90 -6 -17 47 -184 89 -282
105 -248 244 -488 446 -771 39 -55 -197 187 -260 265 -168 212 -289 448 -405
790 l-54 160 6 -75 c3 -41 7 -86 10 -100 3 -14 9 -50 15 -80 5 -30 14 -70 19
-88 5 -17 8 -32 6 -32 -15 0 -107 248 -120 319 -3 19 -8 38 -10 41 -16 26 -24
284 -12 375 11 88 49 254 62 271 9 13 12 13 12 3 0 -24 15 -163 19 -184 2 -11
6 -32 9 -47 15 -82 48 -202 71 -258 37 -92 111 -237 125 -246 9 -5 10 -2 5 12
-10 25 -37 141 -42 179 -2 17 -6 41 -9 55 -7 38 -17 196 -12 190 3 -3 17 -27
32 -55 37 -67 129 -204 157 -235 13 -14 96 -108 184 -210 158 -181 232 -260
309 -330 l39 -35 -33 45 c-118 160 -270 427 -331 580 -48 120 -111 373 -96
387 2 3 28 -42 56 -98 29 -57 70 -135 93 -174 50 -87 193 -301 206 -309 5 -3
-10 38 -33 92 -47 105 -83 207 -115 317 -28 101 -39 164 -56 320 -3 28 -7 68
-10 90 l-5 40 14 -30 c9 -16 32 -73 52 -125 87 -226 262 -534 364 -640 24 -26
40 -36 35 -25 -4 11 -18 49 -31 84 -14 35 -23 65 -21 68 3 2 16 -16 30 -39 79
-135 347 -471 347 -435 0 4 -28 53 -62 109 -102 172 -186 351 -227 488 -15 50
-43 211 -38 216 2 2 17 -26 33 -63 77 -183 260 -458 416 -625 88 -95 87 -80
-8 78 -79 133 -135 261 -168 382 -13 50 -23 92 -21 92 2 0 26 -37 53 -82 84
-143 154 -244 255 -373 68 -86 69 -87 89 -68 29 26 206 265 257 348 24 39 52
82 62 97 11 15 19 32 19 37 0 5 5 13 10 16 17 10 1 -70 -33 -165 -33 -96 -98
-228 -163 -336 -24 -40 -44 -76 -44 -80 0 -13 68 57 148 151 94 112 200 274
282 430 67 127 90 166 90 150 -1 -24 -42 -207 -62 -270 -27 -87 -155 -345
-219 -442 -26 -40 -44 -73 -40 -73 24 0 212 222 291 345 25 39 48 75 53 80 4
6 14 19 22 30 13 18 13 15 1 -20 -8 -22 -24 -62 -35 -89 -12 -27 -20 -51 -17
-53 2 -2 46 52 97 121 100 132 195 303 273 491 26 61 51 119 56 130 4 11 11
27 14 35 6 16 -2 -164 -10 -220 -23 -163 -107 -423 -186 -572 -5 -10 -7 -18
-4 -18 8 0 151 221 213 330 82 142 105 187 125 240 l16 45 1 -37 c4 -188 -156
-573 -366 -883 l-75 -110 114 115 c62 63 160 169 217 235 57 66 125 145 152
176 77 87 125 155 169 240 23 43 44 79 47 79 6 0 -2 -150 -13 -230 -3 -25 -14
-79 -24 -120 -11 -41 -17 -76 -15 -78 10 -10 128 243 155 333 16 53 24 85 45
195 15 74 25 149 25 184 0 54 8 42 35 -58 22 -79 28 -108 40 -186 6 -37 6
-271 0 -305 -3 -16 -8 -46 -11 -65 -10 -62 -51 -193 -89 -285 -39 -95 -61
-132 -45 -74 22 75 39 179 46 269 6 90 1 120 -9 55 -9 -57 -55 -202 -97 -306
-99 -247 -243 -490 -391 -663 -66 -77 -212 -226 -217 -222 -2 3 25 45 60 93
114 155 172 248 278 447 92 174 178 384 196 481 l7 40 -24 -20 c-13 -11 -26
-23 -29 -27 -8 -11 -88 -104 -142 -166 -29 -33 -62 -89 -89 -150 -59 -137 -81
-177 -164 -301 -74 -111 -271 -377 -286 -387 -5 -3 14 35 42 83 99 169 221
434 201 433 -4 0 -72 -104 -151 -231 -78 -126 -188 -293 -243 -371 -110 -154
-112 -157 -213 -270 -129 -146 -142 -170 -111 -211 27 -35 54 -28 219 57 307
156 577 340 798 543 25 24 49 43 52 43 7 0 -42 -90 -63 -115 -36 -42 -32 -45
25 -24 138 52 325 182 471 327 103 102 184 206 384 491 l143 204 -43 81 c-59
111 -59 112 -79 76 -38 -72 -153 -213 -258 -319 -63 -62 -116 -111 -119 -108
-3 2 30 58 72 123 210 323 376 628 464 852 18 45 38 82 45 82 7 0 23 -9 36
-19 l24 -19 -48 -141 c-45 -136 -82 -227 -112 -283 -8 -14 -15 -31 -15 -38 0
-9 73 -143 87 -159 7 -9 31 26 78 114 45 86 65 117 65 102 0 -13 -69 -196 -89
-236 l-22 -42 37 -70 c35 -66 38 -69 55 -53 20 18 81 119 124 204 34 66 78
194 96 273 7 32 16 60 20 63 12 7 54 -43 124 -147 87 -130 169 -287 225 -433
54 -138 74 -159 127 -137 46 19 53 45 32 121 -54 197 -184 435 -379 695 -138
184 -140 188 -128 238 5 23 11 49 13 57 14 63 29 116 36 124 5 5 20 1 36 -9
52 -34 224 -188 359 -322 99 -99 140 -133 158 -133 29 0 54 22 62 56 9 36 -44
109 -174 241 -136 138 -186 183 -295 268 -49 37 -91 74 -94 82 -5 13 52 139
68 148 3 3 42 -5 85 -16 87 -23 97 -25 167 -39 97 -19 352 -29 427 -16 14 3
48 7 75 11 185 23 255 78 191 152 -24 27 -24 27 -84 15 -165 -34 -469 -35
-619 -2 -72 16 -123 56 -181 142 -52 78 -118 205 -111 212 3 3 42 -32 88 -76
75 -73 85 -79 94 -62 16 29 16 393 0 504 -20 134 -123 548 -192 768 l-19 64
66 -64 c127 -122 180 -149 216 -109 24 27 17 53 -38 134 -71 103 -120 210
-171 372 -25 83 -65 209 -87 280 -39 126 -131 331 -204 455 -20 34 -34 63 -32
65 2 2 31 -10 65 -27 63 -31 96 -32 107 -1 7 18 -9 46 -65 113 -37 45 -99 154
-99 176 0 8 16 7 54 -4 50 -14 57 -14 81 2 35 23 27 45 -40 118 -75 81 -87
123 -89 315 -2 183 3 240 48 523 44 268 41 249 61 425 20 173 25 483 12 660
-13 168 -22 227 -48 345 -24 105 -40 145 -67 159 -60 31 -312 -53 -479 -161
-90 -59 -232 -178 -368 -309 -263 -254 -348 -323 -454 -372 -36 -16 -149 -51
-252 -77 -209 -54 -233 -64 -290 -121 l-40 -40 -57 10 c-31 6 -73 13 -92 16
-19 3 -46 7 -60 10 -44 8 -171 24 -235 30 -60 6 -418 6 -459 0 -16 -2 -59 -6
-95 -10 -36 -3 -91 -10 -121 -15 -30 -5 -75 -12 -100 -15 -25 -4 -67 -11 -95
-16 -50 -9 -50 -9 -87 29 -47 50 -125 82 -305 126 -202 50 -343 120 -459 228
-26 24 -61 57 -78 73 -18 17 -91 84 -162 151 -179 168 -189 176 -279 244 -135
101 -314 185 -457 215 -88 19 -90 19 -116 -5z m504 -470 c220 -105 552 -478
764 -860 58 -103 132 -262 125 -268 -6 -6 -62 18 -225 96 -161 77 -237 107
-294 116 -21 4 -42 8 -45 11 -9 5 -114 22 -201 32 -36 4 -140 8 -232 8 -158 0
-193 5 -131 18 217 47 238 49 383 51 102 2 248 -15 332 -39 23 -6 23 -6 3 10
-46 38 -292 145 -365 160 -10 2 -106 18 -125 21 -11 2 -72 6 -135 10 -155 8
-159 13 -35 39 92 19 280 26 363 13 31 -5 83 -17 115 -28 73 -24 66 -13 -43
70 -157 120 -331 223 -485 287 l-80 34 50 -7 c56 -7 188 -39 240 -58 11 -5 45
-17 75 -28 87 -33 210 -96 278 -145 34 -24 62 -42 62 -39 0 3 -17 30 -37 58
-117 166 -314 354 -485 465 -38 23 -68 45 -68 48 0 7 120 -39 196 -75z m4318
63 c-56 -20 -292 -217 -392 -327 -78 -87 -179 -226 -164 -226 5 0 15 7 22 15
70 84 414 223 618 249 48 6 49 -8 1 -18 -81 -16 -432 -217 -533 -306 -36 -32
-67 -63 -63 -66 1 -1 36 7 77 18 77 20 287 29 375 16 76 -11 165 -32 165 -38
0 -4 -26 -7 -57 -8 -115 -4 -190 -13 -333 -39 -43 -7 -201 -64 -239 -85 -94
-52 -141 -80 -141 -83 0 -2 15 1 33 6 97 29 313 42 442 25 81 -10 265 -49 259
-55 -2 -3 -66 -6 -142 -7 -190 -3 -292 -12 -397 -35 -155 -33 -198 -50 -477
-183 -53 -25 -102 -46 -107 -46 -12 0 48 147 98 240 56 105 233 378 260 400 3
3 20 23 36 45 16 22 37 49 47 60 9 11 26 31 38 45 89 105 228 235 313 292 83
56 254 133 267 120 3 -2 0 -7 -6 -9z m-3389 -689 c60 -59 118 -133 170 -219
l36 -60 -5 51 c-6 59 -39 152 -66 187 -30 38 -26 46 21 35 51 -14 104 -65 134
-131 24 -53 28 -84 40 -332 3 -55 7 -118 10 -140 2 -22 9 -80 15 -130 12 -93
29 -137 31 -75 0 19 2 44 3 55 2 11 6 49 10 85 4 36 9 72 11 80 2 8 7 47 11
85 3 39 8 81 9 95 2 14 3 47 4 74 l1 50 31 -30 c67 -63 138 -180 180 -296 14
-41 32 -52 25 -15 -3 12 -10 49 -17 82 -16 88 -57 199 -101 279 -55 100 -62
115 -56 121 14 15 117 6 155 -13 97 -50 207 -185 266 -327 16 -38 32 -72 35
-75 2 -3 2 27 -1 65 -12 132 -62 254 -141 342 l-46 51 52 7 c29 4 62 9 73 12
26 6 484 5 510 0 11 -3 43 -8 72 -12 l52 -7 -54 -64 c-30 -35 -65 -85 -79
-111 -31 -64 -58 -177 -54 -232 l3 -45 24 60 c42 100 92 176 172 256 83 83
123 102 202 96 52 -4 52 -7 -15 -145 -27 -57 -60 -145 -72 -196 -24 -95 -42
-196 -33 -187 3 3 19 41 37 85 41 105 90 191 138 245 48 54 43 67 76 -185 14
-104 27 -203 30 -220 2 -16 5 -38 5 -47 1 -20 17 -25 18 -5 0 6 3 30 6 52 15
97 27 219 32 330 3 66 7 131 10 145 2 14 6 47 10 75 12 89 64 159 142 192 56
23 67 17 39 -20 -31 -41 -72 -147 -79 -207 -5 -37 -4 -42 6 -27 7 11 34 53 61
95 28 43 79 106 115 142 64 63 160 135 169 125 2 -2 -13 -30 -35 -62 -21 -32
-76 -113 -121 -180 -98 -145 -160 -265 -201 -389 -44 -131 -44 -132 37 -88 37
20 75 42 84 48 29 18 31 -1 5 -46 -48 -83 -148 -281 -143 -285 2 -3 27 13 55
35 101 80 279 162 382 177 41 5 42 5 19 -8 -31 -16 -113 -70 -120 -77 -3 -3
-21 -17 -40 -30 -45 -32 -160 -140 -160 -151 0 -5 30 11 68 35 90 58 156 91
244 120 86 29 108 33 208 41 l75 5 -85 -33 c-198 -76 -349 -186 -440 -320 -28
-43 -70 -140 -70 -165 0 -8 24 6 53 30 119 99 210 145 342 174 73 16 291 12
404 -8 148 -25 162 -33 69 -42 -131 -12 -291 -60 -434 -131 -73 -36 -138 -73
-145 -82 -12 -14 -11 -15 10 -8 125 39 409 23 571 -33 61 -22 170 -69 170 -74
0 -2 -62 -4 -137 -4 -210 0 -373 -16 -373 -35 0 -5 3 -9 8 -10 4 -1 18 -2 32
-4 43 -4 191 -43 267 -69 132 -45 272 -142 376 -258 31 -35 54 -64 52 -66 -2
-2 -32 12 -67 32 -69 38 -149 62 -240 72 -40 4 -58 3 -58 -5 0 -6 5 -11 11
-11 5 0 35 -11 65 -25 159 -73 336 -195 423 -291 104 -117 199 -303 230 -456
l8 -37 -46 51 c-143 159 -262 256 -413 335 -112 59 -111 56 6 -32 159 -120
290 -329 392 -629 26 -76 27 -76 -56 2 -97 93 -351 242 -411 242 -19 0 -21 -4
-16 -37 4 -20 10 -39 15 -42 141 -98 247 -197 316 -294 47 -67 109 -177 103
-184 -3 -2 -42 34 -88 80 -98 98 -176 168 -164 147 5 -8 21 -33 35 -55 66 -97
123 -224 140 -312 13 -69 23 -333 13 -333 -5 0 -19 26 -32 57 -52 120 -188
316 -308 443 -18 19 -33 38 -33 43 0 4 -4 7 -9 7 -9 0 58 -180 144 -390 78
-190 89 -236 90 -380 0 -105 -18 -235 -34 -245 -4 -2 -15 31 -25 73 -23 101
-65 186 -118 241 -47 48 -168 111 -258 134 -61 16 -57 22 35 48 77 22 24 27
-144 13 l-65 -6 50 40 c58 46 177 163 171 169 -2 2 -34 -10 -70 -26 -90 -40
-213 -79 -279 -86 -29 -4 -63 -8 -75 -10 -34 -5 -29 0 30 30 96 51 210 149
241 209 11 22 12 34 3 53 -8 19 -7 28 9 47 145 180 187 272 200 439 9 101 -3
131 -22 57 -18 -67 -63 -188 -73 -194 -4 -3 -6 30 -4 72 l3 77 -43 -125 c-50
-149 -118 -267 -203 -355 -95 -98 -189 -152 -414 -237 -58 -22 -107 -42 -110
-45 -3 -3 24 -2 60 1 62 7 76 9 137 22 75 16 -71 -70 -169 -100 -24 -7 -89
-12 -145 -12 -57 1 -103 0 -103 -1 0 -1 32 -18 71 -38 63 -32 209 -122 209
-129 0 -2 -21 -3 -47 -4 -121 -4 -202 -38 -189 -79 7 -22 21 -26 166 -38 255
-23 627 -153 1116 -390 225 -109 244 -116 244 -87 0 24 6 24 88 -7 69 -26 71
-30 51 -119 -18 -88 -21 -89 -124 -31 -321 182 -726 361 -1045 463 -236 76
-310 82 -318 27 -5 -34 15 -51 118 -98 364 -169 648 -343 960 -588 128 -100
170 -136 233 -198 41 -41 48 -52 42 -75 -5 -22 -30 -51 -45 -52 -3 0 -27 21
-55 45 -334 303 -710 559 -1070 731 -239 113 -332 136 -398 95 -55 -34 -65
-50 -42 -67 11 -8 36 -17 57 -21 21 -3 38 -8 38 -12 0 -3 -12 -24 -27 -46
-132 -199 -436 -255 -697 -130 -39 19 -92 53 -119 76 -101 87 -106 154 -22
297 43 73 72 103 165 165 198 132 234 237 154 450 -25 66 -44 81 -50 41 -2
-10 -10 -71 -19 -135 -18 -140 -30 -179 -56 -179 -10 0 -48 12 -84 27 -64 26
-67 27 -143 14 -111 -20 -134 -20 -199 -5 -83 20 -121 17 -178 -11 -101 -50
-108 -42 -131 155 -6 49 -9 72 -19 140 l-7 44 -23 -45 c-57 -112 -72 -254 -34
-333 24 -53 66 -92 177 -170 101 -71 134 -109 179 -204 56 -120 47 -168 -49
-251 -48 -41 -168 -104 -243 -125 -116 -34 -283 -19 -402 36 -54 25 -197 160
-191 180 3 7 32 20 66 28 l62 15 -23 26 c-64 76 -133 81 -287 21 -206 -81
-426 -197 -620 -325 -88 -58 -315 -221 -330 -237 -3 -3 -39 -33 -80 -67 -41
-34 -115 -97 -164 -142 -50 -45 -94 -81 -98 -81 -13 0 -58 47 -58 61 0 12 89
104 160 164 42 36 256 204 287 225 12 8 66 47 120 86 178 128 412 259 665 373
64 29 124 61 133 70 21 24 5 67 -27 73 -72 14 -508 -123 -778 -244 -142 -64
-297 -141 -461 -228 -102 -55 -191 -100 -197 -100 -14 0 -33 67 -35 123 l-2
41 64 27 c66 28 91 28 91 2 0 -20 20 -12 140 53 351 191 885 386 1155 423 44
6 108 11 143 12 79 3 101 16 84 53 -14 30 -86 54 -175 57 l-59 2 24 19 c37 28
181 116 213 129 28 12 21 13 -77 20 -59 4 -125 13 -145 19 -46 15 -136 65
-153 85 -10 12 -7 13 21 5 50 -15 186 -24 174 -13 -5 5 -46 22 -90 38 -126 44
-295 129 -361 181 -117 93 -219 254 -286 449 -27 79 -27 79 -27 35 1 -25 0
-58 0 -75 -2 -28 -3 -28 -13 -10 -6 11 -26 64 -43 118 -36 108 -44 124 -46 81
-1 -16 -2 -38 -3 -49 0 -11 7 -57 16 -101 23 -113 75 -215 171 -337 22 -27 29
-49 31 -87 3 -52 12 -68 75 -124 53 -48 107 -86 175 -123 l61 -34 -60 6 c-96
10 -244 53 -327 94 -43 21 -78 34 -78 30 0 -13 159 -167 192 -187 40 -23 35
-30 -18 -22 -49 8 -226 12 -209 5 6 -2 36 -11 68 -20 31 -8 57 -19 57 -23 0
-4 -33 -18 -73 -31 -204 -67 -290 -155 -342 -351 -29 -105 -32 -102 -64 73
-13 73 -4 194 20 272 11 39 48 138 81 220 85 212 128 328 128 345 0 15 -16 -1
-104 -104 -22 -26 -51 -60 -64 -75 -45 -52 -115 -163 -164 -261 -27 -55 -52
-100 -55 -100 -6 0 4 228 13 300 13 96 89 274 160 373 20 27 28 45 20 40 -19
-10 -169 -156 -218 -211 -21 -23 -38 -39 -38 -36 0 19 75 158 112 209 57 77
102 121 213 210 108 86 128 108 123 132 -5 30 -42 26 -124 -11 -101 -47 -222
-129 -311 -211 -40 -37 -73 -65 -73 -63 0 9 41 128 55 163 108 259 222 428
363 539 34 27 62 51 62 53 0 8 -153 -78 -215 -120 -71 -48 -54 -33 -199 -177
l-117 -115 14 45 c110 352 286 556 627 724 52 26 97 50 100 53 9 9 -106 -6
-175 -23 -36 -9 -96 -36 -135 -60 l-71 -43 22 32 c73 104 263 251 392 301 76
30 280 86 315 86 33 0 27 17 -9 25 -112 25 -279 35 -394 24 -44 -4 -81 -6 -83
-4 -12 12 190 89 293 112 93 20 300 25 395 8 41 -7 76 -12 78 -10 6 5 -110 69
-203 112 -83 38 -188 76 -243 88 -12 3 -32 7 -44 10 -13 3 -54 8 -93 12 -38 3
-72 7 -74 9 -3 3 54 19 104 29 166 32 465 22 509 -17 6 -4 16 -8 24 -8 27 0
158 -72 228 -126 39 -30 74 -54 78 -54 10 0 -43 132 -69 170 -90 134 -271 261
-469 332 l-81 29 80 -5 c153 -11 313 -66 450 -157 22 -14 51 -32 65 -39 l25
-13 -25 29 c-53 62 -116 114 -211 175 -96 63 -121 87 -76 74 163 -46 265 -94
385 -181 l62 -45 -75 153 c-42 84 -78 154 -81 157 -2 2 -4 12 -4 22 0 23 16
18 94 -33 33 -21 63 -38 68 -38 20 0 -26 145 -85 270 -48 103 -92 174 -214
346 -51 73 -93 135 -93 138 0 16 107 -53 155 -100z m-510 -369 c82 -11 220
-68 287 -118 41 -30 34 -37 -19 -20 -168 51 -400 76 -720 77 -88 1 -159 4
-157 8 5 7 201 55 249 60 44 5 313 0 360 -7z m3784 -19 c68 -14 126 -28 129
-31 3 -3 -12 -5 -34 -6 -297 -6 -438 -13 -534 -25 -118 -14 -232 -35 -288 -53
-34 -10 -62 -17 -62 -14 0 21 110 89 194 120 127 47 397 51 595 9z m-3744
-191 c22 -9 50 -26 64 -36 23 -19 22 -19 -150 -20 -212 0 -311 -6 -401 -23
-81 -15 -78 -4 9 39 123 60 382 82 478 40z m3600 -5 c76 -24 199 -79 192 -86
-2 -2 -37 3 -76 11 -102 21 -220 29 -408 28 -90 -1 -163 2 -163 6 0 7 84 52
120 64 8 3 71 4 140 2 95 -2 142 -8 195 -25z m-3865 -354 c0 -4 -92 -33 -130
-41 -8 -2 -51 -15 -95 -29 -43 -14 -81 -24 -82 -22 -7 6 143 69 191 81 54 12
116 18 116 11z m3927 -27 c52 -20 143 -66 143 -74 0 -2 -60 17 -132 41 -73 24
-143 44 -155 44 -13 0 -23 5 -23 10 0 16 101 3 167 -21z m647 -2671 c13 -29
29 -75 36 -103 23 -90 20 -387 -5 -493 -7 -27 -15 -25 -112 19 -38 17 -61 34
-58 41 2 7 6 29 9 48 3 19 12 61 21 92 8 32 17 70 20 85 2 16 9 53 15 83 11
58 23 218 22 284 -1 37 0 38 14 17 8 -11 25 -45 38 -73z m-5346 25 c4 -84 14
-176 27 -258 16 -90 15 -89 45 -207 12 -48 20 -94 17 -101 -5 -15 -156 -80
-158 -69 0 4 -2 14 -4 22 -17 77 -23 159 -20 290 3 171 5 188 41 275 14 33 28
68 31 78 10 31 19 18 21 -30z m1200 -203 c22 -7 23 -9 7 -10 -11 -2 -29 -4
-40 -5 -11 -2 -56 -6 -100 -9 -44 -4 -96 -9 -115 -11 -19 -2 -57 -7 -85 -10
-71 -7 -204 -24 -242 -31 -18 -3 -33 -3 -33 0 0 8 188 66 233 72 23 4 43 7 44
8 7 6 309 3 331 -4z m3322 -15 c30 -9 66 -18 80 -21 30 -6 130 -51 130 -58 0
-3 -18 1 -39 9 -21 7 -63 16 -91 20 -29 4 -60 8 -69 10 -9 1 -45 6 -81 10 -36
3 -81 8 -100 10 -19 2 -72 7 -117 10 -45 4 -90 8 -100 10 -10 2 -27 4 -38 5
-17 2 -16 3 5 11 42 14 358 3 420 -16z m-3220 -663 c-222 -206 -453 -445 -606
-627 -64 -77 -104 -115 -118 -115 -16 0 -46 32 -46 49 0 74 452 552 654 690
80 55 186 108 221 110 6 0 -42 -48 -105 -107z m2648 86 c177 -82 429 -293 636
-532 28 -33 58 -67 66 -76 37 -40 88 -108 103 -137 19 -36 14 -59 -16 -74 -18
-10 -28 -3 -86 57 -36 38 -100 107 -141 154 -90 103 -307 320 -487 489 -156
145 -166 161 -75 119z m-1176 -173 c13 -4 85 -29 160 -56 106 -38 155 -50 213
-53 42 -2 78 -6 81 -8 6 -7 -53 -89 -84 -116 -41 -36 -85 -62 -105 -62 -10 0
-30 -9 -45 -20 -15 -11 -61 -32 -102 -47 -63 -22 -95 -27 -200 -29 -185 -4
-270 17 -479 119 -29 14 -142 137 -136 147 3 4 31 10 62 13 80 7 95 11 240 63
71 25 148 49 173 53 53 8 189 6 222 -4z m1325 -468 c-8 -60 -34 -151 -64 -219
-42 -94 -43 -66 -3 50 20 60 43 132 50 160 15 63 24 68 17 9z m-2836 -134 c26
-87 46 -159 44 -161 -6 -7 -74 169 -84 220 -34 161 -21 142 40 -59z"/>
<path d="M5143 7517 c-29 -13 -35 -30 -17 -56 19 -26 38 -27 64 -1 34 34 -2
78 -47 57z"/>
<path d="M5135 7354 c-22 -22 -19 -61 5 -69 62 -20 94 46 35 73 -19 9 -28 8
-40 -4z"/>
<path d="M5132 7198 c-16 -16 -15 -40 1 -63 20 -27 67 -13 67 19 0 43 -42 70
-68 44z"/>
<path d="M4694 7058 c21 -70 42 -207 51 -343 13 -190 14 -196 77 -339 43 -99
77 -227 79 -296 2 -158 40 -15 45 170 5 215 -49 420 -181 695 -41 86 -84 153
-71 113z"/>
<path d="M5573 6988 c-78 -154 -135 -309 -172 -466 -24 -103 -32 -286 -17
-424 7 -73 25 -117 27 -66 0 13 2 30 3 38 2 8 6 40 10 71 9 68 24 121 66 219
69 162 74 185 85 355 7 117 23 237 40 303 7 28 10 52 6 52 -3 0 -25 -37 -48
-82z"/>
<path d="M4305 7019 c9 -14 9 -225 0 -291 -4 -29 -20 -100 -35 -158 -55 -213
-33 -325 92 -477 131 -157 159 -193 192 -243 50 -76 45 -85 -7 -14 -115 157
-303 282 -475 317 -90 18 -235 15 -322 -8 -219 -56 -483 -143 -537 -176 -41
-26 -42 -31 -3 -17 32 11 104 6 183 -11 24 -6 59 -13 78 -15 48 -6 114 -18
115 -19 0 -1 26 -54 57 -118 65 -133 139 -222 239 -288 96 -65 160 -78 392
-82 104 -1 174 -25 202 -67 22 -34 26 -154 7 -244 -8 -38 -30 -100 -50 -136
-29 -55 -32 -63 -13 -47 33 30 116 136 143 184 l24 42 13 -63 c7 -35 15 -81
17 -103 9 -74 21 -60 62 75 46 149 54 204 55 370 1 320 -32 434 -194 660 -123
173 -132 202 -135 450 -2 102 -8 210 -14 240 -15 78 -73 250 -83 250 -5 0 -6
-5 -3 -11z m-340 -1275 c103 -104 241 -142 395 -110 l35 8 -30 -26 c-72 -62
-229 -72 -328 -21 -146 73 -225 200 -201 320 6 28 8 25 42 -45 22 -47 54 -93
87 -126z"/>
<path d="M6006 7022 c-9 -15 -44 -116 -61 -173 -22 -78 -24 -106 -30 -317 -3
-103 -8 -200 -11 -217 -9 -40 -57 -126 -113 -203 -89 -123 -129 -194 -159
-285 -37 -111 -46 -188 -47 -367 0 -146 7 -222 28 -322 9 -45 66 -193 73 -191
5 1 14 40 22 85 19 119 18 119 58 52 35 -60 139 -182 148 -174 2 3 -9 32 -26
65 -45 91 -76 210 -73 277 6 107 61 158 179 164 33 2 104 6 156 8 52 3 108 7
123 11 103 21 221 94 290 178 57 70 121 178 142 241 15 43 24 56 40 57 30 1
71 8 160 25 115 23 192 26 229 8 l31 -15 -30 25 c-36 31 -142 70 -364 135
-233 69 -261 74 -386 73 -130 0 -209 -17 -310 -68 -86 -42 -214 -144 -277
-219 -27 -31 -48 -52 -48 -47 0 12 84 124 170 226 157 187 184 273 145 451
-56 259 -68 367 -52 488 5 37 3 45 -7 29z m471 -1165 c-6 -88 -23 -125 -88
-188 -112 -109 -283 -138 -404 -69 -67 38 -77 52 -28 38 21 -6 80 -8 133 -6
79 3 105 8 153 31 93 46 168 130 207 235 21 55 33 38 27 -41z"/>
<path d="M6257 6705 c-9 -7 -17 -24 -17 -39 0 -26 30 -66 50 -66 15 0 50 38
50 54 0 19 -34 59 -51 62 -8 1 -23 -4 -32 -11z"/>
<path d="M3985 6693 c-22 -51 -5 -83 45 -83 31 0 50 23 50 59 0 38 -81 58 -95
24z"/>
<path d="M3754 6662 c-21 -13 -25 -49 -9 -66 30 -29 85 -12 85 27 0 39 -43 61
-76 39z"/>
<path d="M6494 6646 c-8 -34 12 -66 41 -66 35 0 51 34 30 66 -21 33 -62 33
-71 0z"/>
<path d="M3391 6329 c-45 -9 -61 -21 -61 -50 0 -37 37 -44 140 -24 14 2 45 7
70 10 25 3 70 10 100 15 30 5 71 11 90 14 103 15 120 19 120 26 0 4 -17 10
-37 13 -59 8 -373 5 -422 -4z"/>
<path d="M6495 6331 c-44 -10 -29 -14 215 -56 19 -3 60 -10 91 -15 112 -20
158 -20 173 2 17 23 10 54 -12 63 -24 9 -430 14 -467 6z"/>
<path d="M3140 5800 c-16 -4 7 -9 65 -14 50 -5 91 -8 92 -8 2 1 16 -3 33 -8
35 -10 40 4 8 21 -25 13 -158 19 -198 9z"/>
<path d="M6992 5793 c-40 -20 -42 -34 -2 -23 17 5 33 9 35 9 35 0 144 15 141
19 -14 13 -144 10 -174 -5z"/>
<path d="M3487 5305 c-4 -8 -2 -17 3 -20 6 -4 10 3 10 14 0 25 -6 27 -13 6z"/>
<path d="M6816 5311 c-3 -5 1 -14 9 -21 12 -10 15 -10 15 3 0 19 -16 31 -24
18z"/>
<path d="M3550 5220 c-13 -24 2 -60 25 -60 15 0 45 26 45 40 0 14 -30 40 -45
40 -8 0 -19 -9 -25 -20z"/>
<path d="M6708 5214 c-11 -22 -10 -28 7 -40 27 -20 40 -17 55 11 11 20 11 27
0 40 -19 23 -49 18 -62 -11z"/>
<path d="M3670 5120 c-25 -46 21 -89 52 -50 25 31 22 49 -8 60 -33 13 -32 13
-44 -10z"/>
<path d="M6590 5125 c-16 -19 -5 -61 17 -69 11 -4 25 2 41 17 l24 25 -21 21
c-25 25 -44 27 -61 6z"/>
<path d="M3790 5004 c0 -7 25 -29 53 -45 32 -19 17 6 -18 29 -19 12 -35 19
-35 16z"/>
<path d="M6482 4979 c-18 -12 -31 -23 -29 -26 5 -4 77 36 77 43 0 9 -16 3 -48
-17z"/>
<path d="M4273 4428 c-11 -18 -11 -30 -1 -50 11 -23 31 -23 51 0 21 23 21 27
1 46 -19 19 -40 21 -51 4z"/>
<path d="M5990 4414 c-18 -47 37 -78 60 -35 13 25 13 27 -6 45 -23 23 -43 19
-54 -10z"/>
<path d="M4442 4394 c-10 -20 -10 -29 -1 -41 28 -32 86 8 63 45 -18 28 -49 26
-62 -4z"/>
<path d="M5822 4408 c-19 -19 -14 -52 10 -67 19 -12 24 -11 40 9 10 12 18 25
18 29 -1 26 -49 48 -68 29z"/>
<path d="M4315 4136 c-21 -15 -17 -45 8 -60 15 -9 21 -7 33 8 19 27 18 43 -5
55 -13 7 -23 6 -36 -3z"/>
<path d="M4468 4139 c-37 -21 -10 -77 31 -64 25 8 36 41 21 60 -14 17 -28 18
-52 4z"/>
<path d="M5802 4138 c-28 -28 -1 -75 38 -63 11 3 21 11 21 16 1 5 2 15 3 22 5
32 -38 49 -62 25z"/>
<path d="M5950 4129 c-9 -16 -8 -25 6 -40 9 -10 23 -19 30 -19 20 0 33 32 23
58 -11 28 -45 29 -59 1z"/>
<path d="M1710 4348 c-11 -12 -20 -27 -20 -34 0 -19 22 -64 31 -64 4 0 14 -3
23 -6 19 -7 66 38 66 65 0 24 -37 61 -61 61 -10 0 -27 -10 -39 -22z"/>
<path d="M8521 4346 c-30 -32 -22 -70 18 -91 27 -13 31 -13 55 6 31 25 34 61
6 89 -27 27 -52 25 -79 -4z"/>
<path d="M2784 2305 c-35 -54 18 -106 72 -70 29 19 31 48 4 75 -27 27 -56 25
-76 -5z"/>
<path d="M7462 2322 c-18 -12 -19 -82 -1 -93 54 -34 112 33 69 79 -21 23 -46
28 -68 14z"/>
<path d="M4823 1690 c-33 -13 -45 -43 -32 -77 12 -31 111 -168 142 -195 11
-10 29 -18 39 -18 22 0 68 43 68 63 0 34 -160 238 -186 236 -5 0 -19 -4 -31
-9z"/>
<path d="M5432 1675 c-17 -14 -56 -59 -88 -101 -45 -58 -58 -84 -58 -110 0
-35 24 -63 55 -64 38 0 189 185 189 232 0 25 -37 68 -57 68 -6 0 -25 -11 -41
-25z"/>
</g>
</svg>
